<?xml version="1.0" encoding="UTF-8" standalone="no"?><svg xmlns="http://www.w3.org/2000/svg" xmlns:xlink="http://www.w3.org/1999/xlink" clip-rule="evenodd" stroke-miterlimit="4.00" viewBox="0 0 158 12"><desc>SVG generated by Keynote</desc><defs></defs><g transform="matrix(1.00, 0.00, -0.00, -1.00, 0.0, 12.0)"><text xml:space="preserve" font-family="Helvetica" font-size="8.0" fill="#FFFFFF" transform="matrix(1.00, 0.00, -0.00, -1.00, 2.0, 3.0)">C</text><text xml:space="preserve" font-family="Helvetica" font-size="8.0" fill="#FFFFFF" transform="matrix(1.00, 0.00, -0.00, -1.00, 7.8, 3.0)">o</text><text xml:space="preserve" font-family="Helvetica" font-size="8.0" fill="#FFFFFF" transform="matrix(1.00, 0.00, -0.00, -1.00, 12.2, 3.0)">n</text><text xml:space="preserve" font-family="Helvetica" font-size="8.0" fill="#FFFFFF" transform="matrix(1.00, 0.00, -0.00, -1.00, 16.7, 3.0)">s</text><text xml:space="preserve" font-family="Helvetica" font-size="8.0" fill="#FFFFFF" transform="matrix(1.00, 0.00, -0.00, -1.00, 20.7, 3.0)">e</text><text xml:space="preserve" font-family="Helvetica" font-size="8.0" fill="#FFFFFF" transform="matrix(1.00, 0.00, -0.00, -1.00, 25.1, 3.0)">j</text><text xml:space="preserve" font-family="Helvetica" font-size="8.0" fill="#FFFFFF" transform="matrix(1.00, 0.00, -0.00, -1.00, 26.9, 3.0)">o</text><text xml:space="preserve" font-family="Helvetica" font-size="8.0" fill="#FFFFFF" transform="matrix(1.00, 0.00, -0.00, -1.00, 31.4, 3.0)"> </text><text xml:space="preserve" font-family="Helvetica" font-size="8.0" fill="#FFFFFF" transform="matrix(1.00, 0.00, -0.00, -1.00, 33.6, 3.0)">C</text><text xml:space="preserve" font-family="Helvetica" font-size="8.0" fill="#FFFFFF" transform="matrix(1.00, 0.00, -0.00, -1.00, 39.4, 3.0)">o</text><text xml:space="preserve" font-family="Helvetica" font-size="8.0" fill="#FFFFFF" transform="matrix(1.00, 0.00, -0.00, -1.00, 43.8, 3.0)">n</text><text xml:space="preserve" font-family="Helvetica" font-size="8.0" fill="#FFFFFF" transform="matrix(1.00, 0.00, -0.00, -1.00, 48.3, 3.0)">s</text><text xml:space="preserve" font-family="Helvetica" font-size="8.0" fill="#FFFFFF" transform="matrix(1.00, 0.00, -0.00, -1.00, 52.3, 3.0)">u</text><text xml:space="preserve" font-family="Helvetica" font-size="8.0" fill="#FFFFFF" transform="matrix(1.00, 0.00, -0.00, -1.00, 56.7, 3.0)">l</text><text xml:space="preserve" font-family="Helvetica" font-size="8.0" fill="#FFFFFF" transform="matrix(1.00, 0.00, -0.00, -1.00, 58.5, 3.0)">t</text><text xml:space="preserve" font-family="Helvetica" font-size="8.0" fill="#FFFFFF" transform="matrix(1.00, 0.00, -0.00, -1.00, 60.7, 3.0)">i</text><text xml:space="preserve" font-family="Helvetica" font-size="8.0" fill="#FFFFFF" transform="matrix(1.00, 0.00, -0.00, -1.00, 62.5, 3.0)">v</text><text xml:space="preserve" font-family="Helvetica" font-size="8.0" fill="#FFFFFF" transform="matrix(1.00, 0.00, -0.00, -1.00, 66.5, 3.0)">o</text><text xml:space="preserve" font-family="Helvetica" font-size="8.0" fill="#FFFFFF" transform="matrix(1.00, 0.00, -0.00, -1.00, 70.9, 3.0)"> </text><text xml:space="preserve" font-family="Helvetica" font-size="8.0" fill="#FFFFFF" transform="matrix(1.00, 0.00, -0.00, -1.00, 73.2, 3.0)"> </text><text xml:space="preserve" font-family="Helvetica" font-size="8.0" fill="#FFFFFF" transform="matrix(1.00, 0.00, -0.00, -1.00, 75.4, 3.0)">2</text><text xml:space="preserve" font-family="Helvetica" font-size="8.0" fill="#FFFFFF" transform="matrix(1.00, 0.00, -0.00, -1.00, 79.8, 3.0)">0</text><text xml:space="preserve" font-family="Helvetica" font-size="8.0" fill="#FFFFFF" transform="matrix(1.00, 0.00, -0.00, -1.00, 84.3, 3.0)">1</text><text xml:space="preserve" font-family="Helvetica" font-size="8.0" fill="#FFFFFF" transform="matrix(1.00, 0.00, -0.00, -1.00, 88.7, 3.0)">6</text><text xml:space="preserve" font-family="Helvetica" font-size="8.0" fill="#FFFFFF" transform="matrix(1.00, 0.00, -0.00, -1.00, 93.2, 3.0)"> </text><text xml:space="preserve" font-family="Helvetica" font-size="8.0" fill="#FFFFFF" transform="matrix(1.00, 0.00, -0.00, -1.00, 95.4, 3.0)">|</text><text xml:space="preserve" font-family="Helvetica" font-size="8.0" fill="#FFFFFF" transform="matrix(1.00, 0.00, -0.00, -1.00, 97.5, 3.0)"> </text><text xml:space="preserve" font-family="Helvetica" font-size="8.0" fill="#FFFFFF" transform="matrix(1.00, 0.00, -0.00, -1.00, 99.7, 3.0)">C</text><text xml:space="preserve" font-family="Helvetica" font-size="8.0" fill="#FFFFFF" transform="matrix(1.00, 0.00, -0.00, -1.00, 105.5, 3.0)">a</text><text xml:space="preserve" font-family="Helvetica" font-size="8.0" fill="#FFFFFF" transform="matrix(1.00, 0.00, -0.00, -1.00, 109.9, 3.0)">p</text><text xml:space="preserve" font-family="Helvetica" font-size="8.0" fill="#FFFFFF" transform="matrix(1.00, 0.00, -0.00, -1.00, 114.4, 3.0)">i</text><text xml:space="preserve" font-family="Helvetica" font-size="8.0" fill="#FFFFFF" transform="matrix(1.00, 0.00, -0.00, -1.00, 116.2, 3.0)">t</text><text xml:space="preserve" font-family="Helvetica" font-size="8.0" fill="#FFFFFF" transform="matrix(1.00, 0.00, -0.00, -1.00, 118.4, 3.0)">a</text><text xml:space="preserve" font-family="Helvetica" font-size="8.0" fill="#FFFFFF" transform="matrix(1.00, 0.00, -0.00, -1.00, 122.8, 3.0)">l</text><text xml:space="preserve" font-family="Helvetica" font-size="8.0" fill="#FFFFFF" transform="matrix(1.00, 0.00, -0.00, -1.00, 124.6, 3.0)"> </text><text xml:space="preserve" font-family="Helvetica" font-size="8.0" fill="#FFFFFF" transform="matrix(1.00, 0.00, -0.00, -1.00, 126.8, 3.0)">H</text><text xml:space="preserve" font-family="Helvetica" font-size="8.0" fill="#FFFFFF" transform="matrix(1.00, 0.00, -0.00, -1.00, 132.6, 3.0)">u</text><text xml:space="preserve" font-family="Helvetica" font-size="8.0" fill="#FFFFFF" transform="matrix(1.00, 0.00, -0.00, -1.00, 137.1, 3.0)">m</text><text xml:space="preserve" font-family="Helvetica" font-size="8.0" fill="#FFFFFF" transform="matrix(1.00, 0.00, -0.00, -1.00, 143.7, 3.0)">a</text><text xml:space="preserve" font-family="Helvetica" font-size="8.0" fill="#FFFFFF" transform="matrix(1.00, 0.00, -0.00, -1.00, 148.2, 3.0)">n</text><text xml:space="preserve" font-family="Helvetica" font-size="8.0" fill="#FFFFFF" transform="matrix(1.00, 0.00, -0.00, -1.00, 152.6, 3.0)">o</text></g></svg>